<svg width="464" height="462" viewBox="0 0 464 462" fill="none" xmlns="http://www.w3.org/2000/svg">
<path fill-rule="evenodd" clip-rule="evenodd" d="M91.4719 47.1975C192.98 -30.0658 337.902 -10.4118 415.166 91.096C492.429 192.604 472.775 337.527 371.267 414.79C269.76 492.053 124.837 472.399 47.5734 370.891C-29.6899 269.383 -10.0359 124.461 91.4719 47.1975ZM126.446 93.1464C50.3154 151.094 35.5748 259.786 93.5223 335.917C151.47 412.048 260.162 426.789 336.293 368.841C412.424 310.894 427.165 202.201 369.217 126.07C311.269 49.9395 202.577 35.1989 126.446 93.1464Z" fill="#1BBFD1"/>
<path d="M317.938 386.32C307.097 390.177 296.21 393.341 285.367 395.835C323.308 381.881 353.732 358.602 371.961 331.974C417.506 305.149 448.832 269.496 463.285 232.63C458.12 293.88 401.935 356.437 317.938 386.32Z" fill="url(#paint0_linear_1_299)"/>
<path d="M376.588 132.302C381.095 142.603 384.951 152.989 388.17 163.373C371.965 127.353 347.527 99.1916 320.884 83.075C291.895 40.4387 255.677 12.1402 219.643 0.304058C278.019 1.66308 341.666 52.5004 376.588 132.302Z" fill="url(#paint1_linear_1_299)"/>
<path d="M73.7712 311.569C70.4254 300.834 67.7367 290.086 65.6818 279.411C77.8209 316.997 99.0084 347.68 123.714 366.633C147.83 412.202 180.712 444.317 215.223 460.05C157.351 452.27 99.6912 394.732 73.7712 311.569Z" fill="url(#paint2_linear_1_299)"/>
<path d="M146.115 74.4563C156.957 70.8256 167.838 67.9187 178.671 65.7065C140.727 78.8864 110.208 102.041 91.827 129.116C46.2028 155.426 14.6919 191.43 0 229.297C5.61439 165.717 62.1203 102.586 146.115 74.4563Z" fill="url(#paint3_linear_1_299)"/>
<path fill-rule="evenodd" clip-rule="evenodd" d="M124.16 94.957C199.369 35.8176 308.28 48.8446 367.419 124.053C426.559 199.262 413.532 308.173 338.323 367.313C263.114 426.452 154.203 413.425 95.0637 338.216C35.9244 263.007 48.9512 154.096 124.16 94.957ZM150.93 129.001C94.5235 173.356 84.754 255.039 129.109 311.446C173.463 367.852 255.146 377.622 311.552 333.268C367.959 288.913 377.729 207.231 333.374 150.824C289.02 94.4174 207.337 84.6465 150.93 129.001Z" fill="#11678C"/>
<path d="M297.992 346.592C289.91 349.611 281.784 352.113 273.684 354.111C301.97 343.199 324.51 325.383 337.865 305.2C371.703 284.545 394.774 257.438 405.176 229.621C402.027 275.614 360.63 323.19 297.992 346.592Z" fill="url(#paint4_linear_1_299)"/>
<path d="M338.976 155.411C342.477 163.08 345.49 170.821 348.025 178.568C335.447 151.75 316.79 130.922 296.622 119.152C274.379 87.5208 246.884 66.7285 219.722 58.2781C263.515 58.6078 311.845 95.9791 338.976 155.411Z" fill="url(#paint5_linear_1_299)"/>
<path d="M114.009 293.42C111.374 285.412 109.232 277.386 107.565 269.407C117.112 297.446 133.362 320.202 152.111 334.122C170.734 368.01 195.771 391.706 221.837 403.097C178.347 397.945 134.428 355.477 114.009 293.42Z" fill="url(#paint6_linear_1_299)"/>
<path d="M165.459 114.753C173.546 111.903 181.673 109.593 189.77 107.806C161.471 118.138 138.858 135.864 125.393 156.385C91.4908 176.654 68.2863 204.025 57.7159 232.595C61.1756 184.849 102.803 136.84 165.459 114.753Z" fill="url(#paint7_linear_1_299)"/>
<path fill-rule="evenodd" clip-rule="evenodd" d="M119.463 164.441C156.123 102.226 236.276 81.5095 298.491 118.169C360.706 154.829 381.423 234.982 344.763 297.197C308.103 359.412 227.95 380.129 165.735 343.469C103.52 306.809 82.8036 226.656 119.463 164.441ZM147.625 181.035C120.131 227.696 135.669 287.811 182.33 315.306C228.991 342.801 289.105 327.264 316.6 280.603C344.095 233.941 328.558 173.826 281.897 146.331C235.236 118.836 175.12 134.374 147.625 181.035Z" fill="#7B3FE4"/>
<path d="M310.721 293.69C305.867 298.03 300.841 302.017 295.694 305.644C312.589 290.212 323.549 271.503 327.402 253.648C345.529 229.842 354.316 204.454 353.999 182.04C364.402 215.244 348.345 260.052 310.721 293.69Z" fill="url(#paint8_linear_1_299)"/>
<path d="M287.093 148.019C291.66 152.453 295.903 157.071 299.812 161.824C283.611 146.415 264.776 136.887 247.365 134.143C223.048 118.004 198.01 110.926 176.594 112.436C207.477 100.654 251.713 113.673 287.093 148.019Z" fill="url(#paint9_linear_1_299)"/>
<path d="M166.768 306.774C162.717 301.865 159.007 296.808 155.646 291.654C170.051 308.752 187.721 320.296 204.724 324.941C227.116 343.661 251.221 353.453 272.674 354.312C240.681 362.621 198.15 344.809 166.768 306.774Z" fill="url(#paint10_linear_1_299)"/>
<path d="M153.933 167.032C158.837 162.809 163.917 158.956 169.12 155.478C152.056 170.506 141.019 189.173 137.181 207.296C118.903 230.848 110.096 256.459 110.5 279.447C99.8352 244.926 115.936 199.749 153.933 167.032Z" fill="url(#paint11_linear_1_299)"/>
<defs>
<linearGradient id="paint0_linear_1_299" x1="-39.2498" y1="321.334" x2="510.17" y2="168.016" gradientUnits="userSpaceOnUse">
<stop offset="0.605769" stop-color="#11A4B4"/>
<stop offset="1" stop-color="#086973"/>
</linearGradient>
<linearGradient id="paint1_linear_1_299" x1="337.283" y1="511.869" x2="116.401" y2="-46.0812" gradientUnits="userSpaceOnUse">
<stop offset="0.605769" stop-color="#11A4B4"/>
<stop offset="1" stop-color="#086973"/>
</linearGradient>
<linearGradient id="paint2_linear_1_299" x1="147.142" y1="-31.8449" x2="263.382" y2="505.251" gradientUnits="userSpaceOnUse">
<stop offset="0.605769" stop-color="#11A4B4"/>
<stop offset="1" stop-color="#086973"/>
</linearGradient>
<linearGradient id="paint3_linear_1_299" x1="193.328" y1="117.968" x2="-14.8488" y2="176.351" gradientUnits="userSpaceOnUse">
<stop offset="0.605769" stop-color="#11A4B4"/>
<stop offset="1" stop-color="#086973"/>
</linearGradient>
<linearGradient id="paint4_linear_1_299" x1="-41.8941" y1="324.367" x2="510.809" y2="156.114" gradientUnits="userSpaceOnUse">
<stop offset="0.25" stop-color="#137098"/>
<stop offset="1" stop-color="#063E55"/>
</linearGradient>
<linearGradient id="paint5_linear_1_299" x1="339.923" y1="514.776" x2="101.122" y2="-43.2723" gradientUnits="userSpaceOnUse">
<stop offset="0.25" stop-color="#137098"/>
<stop offset="1" stop-color="#063E55"/>
</linearGradient>
<linearGradient id="paint6_linear_1_299" x1="143.8" y1="-34.2047" x2="272.614" y2="507.341" gradientUnits="userSpaceOnUse">
<stop offset="0.25" stop-color="#137098"/>
<stop offset="1" stop-color="#063E55"/>
</linearGradient>
<linearGradient id="paint7_linear_1_299" x1="191.553" y1="118.579" x2="-15.681" y2="180.233" gradientUnits="userSpaceOnUse">
<stop offset="0.25" stop-color="#137098"/>
<stop offset="1" stop-color="#063E55"/>
</linearGradient>
<linearGradient id="paint8_linear_1_299" x1="-139.822" y1="376.717" x2="184.785" y2="-155.555" gradientUnits="userSpaceOnUse">
<stop offset="0.519231" stop-color="#6935C4"/>
<stop offset="1" stop-color="#421F81"/>
</linearGradient>
<linearGradient id="paint9_linear_1_299" x1="387.139" y1="625.966" x2="-156.473" y2="373.534" gradientUnits="userSpaceOnUse">
<stop offset="0.519231" stop-color="#6935C4"/>
<stop offset="1" stop-color="#421F81"/>
</linearGradient>
<linearGradient id="paint10_linear_1_299" x1="87.9863" y1="-119.244" x2="601.822" y2="259.899" gradientUnits="userSpaceOnUse">
<stop offset="0.519231" stop-color="#6935C4"/>
<stop offset="1" stop-color="#421F81"/>
</linearGradient>
<linearGradient id="paint11_linear_1_299" x1="187.986" y1="179.73" x2="91.387" y2="254.878" gradientUnits="userSpaceOnUse">
<stop offset="0.519231" stop-color="#6935C4"/>
<stop offset="1" stop-color="#421F81"/>
</linearGradient>
</defs>
</svg>
