<svg width="468" height="468" viewBox="0 0 468 468" fill="none" xmlns="http://www.w3.org/2000/svg">
<path fill-rule="evenodd" clip-rule="evenodd" d="M89.4575 50.0642C190.716 -29.8145 337.348 -12.2192 416.971 89.3644C496.593 190.948 479.055 338.052 377.797 417.931C276.539 497.81 129.906 480.214 50.2833 378.631C-29.3393 277.048 -11.8005 129.943 89.4575 50.0642ZM125.5 96.0471C49.556 155.956 36.4028 266.285 96.1198 342.472C155.837 418.66 265.811 431.856 341.754 371.947C417.697 312.038 430.851 201.711 371.135 125.523C311.418 49.3354 201.443 36.138 125.5 96.0471Z" fill="#1F8CA1"/>
<path d="M323.498 389.944C312.615 394.022 301.676 397.401 290.77 400.1C328.853 385.361 359.199 361.297 377.18 334.036C422.738 306.138 453.032 268.679 467.037 231.106C462.797 293.228 407.831 358.335 323.498 389.944Z" fill="url(#paint0_linear_23_3)"/>
<path d="M378.676 131.718C383.39 142.077 389.502 146.363 392.916 156.827C375.982 120.604 348.806 98.6417 321.652 82.7436C291.706 40.0203 254.688 11.9363 218.118 0.522582C277.079 0.967898 342.148 51.4448 378.676 131.718Z" fill="url(#paint1_linear_23_3)"/>
<path d="M75.7901 318.126C72.2424 307.309 69.3588 296.468 67.1146 285.691C79.9687 323.564 101.847 354.3 127.09 373.102C152.163 418.873 185.871 450.879 220.965 466.264C162.413 459.306 103.282 401.945 75.7901 318.126Z" fill="url(#paint2_linear_23_3)"/>
<path d="M145.06 76.803C155.949 72.9524 166.89 69.8325 177.792 67.4189C139.691 81.3742 109.246 105.316 91.118 133.034C45.473 160.411 14.2314 197.381 -0.000109323 235.97C4.65788 171.481 60.7034 106.635 145.06 76.803Z" fill="url(#paint3_linear_23_3)"/>
<path fill-rule="evenodd" clip-rule="evenodd" d="M82.4242 145.304C131.781 61.271 239.696 33.2895 323.46 82.8052C407.223 132.321 435.115 241.862 385.758 324.616C336.401 407.37 228.486 436.63 144.722 387.115C60.9592 337.599 33.0673 229.337 82.4242 145.304ZM120.34 167.718C83.3228 230.742 104.243 311.939 167.065 349.075C229.887 386.212 310.823 365.226 347.841 302.202C384.858 239.177 363.94 157.98 301.118 120.843C238.295 83.7066 157.358 104.693 120.34 167.718Z" fill="#7B3FE4"/>
<path d="M340.635 318.869C334.1 324.593 328.242 329.658 321.313 334.442C344.059 314.087 357.234 289.782 362.423 266.232C386.828 234.831 398.954 202.118 398.527 172.553C412.534 216.35 391.29 274.499 340.635 318.869Z" fill="url(#paint4_linear_23_3)"/>
<path d="M306.001 122.93C312.036 128.969 317.72 131.083 322.885 137.558C301.475 116.568 276.509 107.764 253.499 104.027C221.365 82.0411 188.278 72.3998 159.976 74.4562C200.788 58.4062 259.246 76.1413 306.001 122.93Z" fill="url(#paint5_linear_23_3)"/>
<path d="M146.857 338.481C141.405 332.021 136.411 325.366 131.887 318.583C151.277 341.084 175.061 356.275 197.948 362.387C228.087 387.021 261.894 400.513 290.77 401.642C247.707 412.576 189.098 388.531 146.857 338.481Z" fill="url(#paint6_linear_23_3)"/>
<path d="M129.543 147.414C136.146 141.711 142.985 136.506 149.99 131.809C127.015 152.108 112.156 177.321 106.989 201.799C82.38 233.61 70.5215 268.203 71.0663 299.252C56.7074 252.625 78.3846 191.606 129.543 147.414Z" fill="url(#paint7_linear_23_3)"/>
<path d="M56.4192 196.179C60.8243 185.472 65.8068 175.214 71.288 165.457C56.2312 203.241 53.6982 241.966 62.1854 274.005C52.0624 326.381 58.6714 374.393 77.8308 410.773C33.0525 364.268 22.2924 279.123 56.4192 196.179Z" fill="url(#paint8_linear_23_3)"/>
<path d="M404.424 294.23C398.69 304.13 392.439 315.779 385.758 324.616C405.512 289.617 410.548 228.544 406.219 196.179C422.941 146.304 409.62 105.373 395.261 67.4189C433.737 118.502 448.854 217.536 404.424 294.23Z" fill="url(#paint9_linear_23_3)"/>
<defs>
<linearGradient id="paint0_linear_23_3" x1="233.8" y1="-78.1929" x2="233.8" y2="545.807" gradientUnits="userSpaceOnUse">
<stop offset="0.466346" stop-color="#1E2C2E"/>
<stop offset="0.817308" stop-color="#1F8CA1"/>
</linearGradient>
<linearGradient id="paint1_linear_23_3" x1="233.8" y1="-78.1929" x2="233.8" y2="545.807" gradientUnits="userSpaceOnUse">
<stop offset="0.0913462" stop-color="#1E2C2E"/>
<stop offset="0.456731" stop-color="#1F8CA1"/>
</linearGradient>
<linearGradient id="paint2_linear_23_3" x1="233.8" y1="-78.1929" x2="233.8" y2="545.807" gradientUnits="userSpaceOnUse">
<stop offset="0.548077" stop-color="#1F8CA1"/>
<stop offset="0.870192" stop-color="#1E2C2E"/>
</linearGradient>
<linearGradient id="paint3_linear_23_3" x1="233.8" y1="-78.1929" x2="233.8" y2="545.807" gradientUnits="userSpaceOnUse">
<stop stop-color="#1F8CA1"/>
<stop offset="0.538462" stop-color="#1E2C2E"/>
</linearGradient>
<linearGradient id="paint4_linear_23_3" x1="-264.923" y1="430.633" x2="174.721" y2="-285.948" gradientUnits="userSpaceOnUse">
<stop offset="0.519231" stop-color="#6935C4"/>
<stop offset="1" stop-color="#421F81"/>
</linearGradient>
<linearGradient id="paint5_linear_23_3" x1="442.568" y1="767.291" x2="-288.829" y2="429.695" gradientUnits="userSpaceOnUse">
<stop offset="0.519231" stop-color="#6935C4"/>
<stop offset="1" stop-color="#421F81"/>
</linearGradient>
<linearGradient id="paint6_linear_23_3" x1="40.9291" y1="-239.254" x2="733.718" y2="268.867" gradientUnits="userSpaceOnUse">
<stop offset="0.519231" stop-color="#6935C4"/>
<stop offset="1" stop-color="#421F81"/>
</linearGradient>
<linearGradient id="paint7_linear_23_3" x1="175.391" y1="164.565" x2="45.0186" y2="265.662" gradientUnits="userSpaceOnUse">
<stop offset="0.519231" stop-color="#6935C4"/>
<stop offset="1" stop-color="#421F81"/>
</linearGradient>
<linearGradient id="paint8_linear_23_3" x1="233.8" y1="-78.1929" x2="233.8" y2="545.807" gradientUnits="userSpaceOnUse">
<stop offset="0.182692" stop-color="#1F8CA1"/>
<stop offset="0.865385" stop-color="#1E2C2E"/>
</linearGradient>
<linearGradient id="paint9_linear_23_3" x1="233.8" y1="-78.1929" x2="233.8" y2="545.807" gradientUnits="userSpaceOnUse">
<stop offset="0.177885" stop-color="#1E2C2E"/>
<stop offset="0.817308" stop-color="#1F8CA1"/>
</linearGradient>
</defs>
</svg>
