<svg width="354" height="331" viewBox="0 0 354 331" fill="none" xmlns="http://www.w3.org/2000/svg">
<path d="M214.652 106.228C218.716 110.687 222.384 115.024 226.382 119.033C229.28 121.938 228.994 124.481 226.93 127.67C220.199 138.072 212.64 147.846 205.009 157.587C201.941 161.502 199.926 160.706 197.029 157.366C181.337 139.269 164.417 122.463 144.482 108.952C129.226 98.6105 113.559 89.0016 95.7243 83.6667C87.099 81.0867 84.7683 83.4574 87.0044 92.1399C89.2794 100.974 92.3361 109.531 96.7051 117.569C97.9445 119.849 98.6585 121.874 96.3803 124.023C87.1015 132.777 78.941 142.505 71.4631 152.821C71.1868 153.202 70.646 153.392 70.1741 153.708C67.4468 153.151 66.4286 150.76 65.1864 148.846C47.5907 121.731 37.0388 92.4411 37.8979 59.6778C37.9204 58.8192 37.9113 57.9592 37.9581 57.102C38.8382 40.99 41.8502 37.5965 57.6412 34.8187C73.0871 32.1015 88.1546 34.8853 103.031 38.4551C137.713 46.7779 167.471 64.4542 194.401 87.3655C201.349 93.2766 207.868 99.6212 214.652 106.228Z" fill="url(#paint0_radial_61_627)"/>
<path d="M149.343 249.869C135.762 239.206 123.687 227.51 112.531 214.822C109.683 211.584 109.493 208.942 111.803 205.239C118.283 194.855 125.682 185.18 133.43 175.746C136.908 171.51 137.593 171.534 141.209 175.852C161.035 199.528 184.011 219.509 210.935 234.77C221.712 240.878 232.855 246.274 244.886 249.559C247.157 250.179 249.403 251.201 252.059 250.449C253.391 246.261 251.929 242.319 250.912 238.407C248.829 230.401 245.955 222.684 241.682 215.551C240.264 213.183 239.353 210.915 241.81 208.616C251.143 199.888 258.99 189.888 266.583 179.672C266.874 179.281 267.387 179.057 267.726 178.807C269.546 178.624 270.225 179.954 270.971 181.057C289.594 208.564 301.207 238.351 300.621 272.108C300.546 276.426 299.938 280.663 298.885 284.834C296.514 294.229 294.643 295.672 284.94 297.277C260.795 301.271 237.677 296.702 215.201 288.462C191.109 279.63 169.41 266.431 149.343 249.869Z" fill="url(#paint1_radial_61_627)"/>
<path d="M94.0728 222.876C91.1181 230.599 87.7033 237.731 86.5783 245.68C85.9814 249.898 86.9021 251.369 91.4254 250.609C101.614 248.897 110.745 244.681 119.534 239.547C121.694 238.285 123.604 236.917 125.931 239.27C134.645 248.08 144.158 255.962 154.11 263.329C154.48 263.604 154.624 264.183 154.844 264.57C154.63 266.42 153.209 267.234 151.99 268.115C125.248 287.43 95.9126 299.088 62.3834 298.294C61.0107 298.262 59.6263 298.246 58.2705 298.057C42.5968 295.872 38.5978 290.374 37.9009 270.754C37.0498 246.793 42.2508 224.051 51.8113 202.264C67.8974 165.606 92.6151 135.316 121.864 108.424C123.985 106.473 125.96 106.254 128.334 107.758C139.51 114.839 150.53 122.115 160.363 131.056C163.282 133.711 161.76 135.423 159.678 137.335C149.428 146.751 139.497 156.48 130.523 167.143C116.209 184.151 103.412 202.151 94.0728 222.876Z" fill="url(#paint2_radial_61_627)"/>
<path d="M176.522 199.873C176.77 197.01 178.858 195.823 180.44 194.336C202.344 173.751 222.032 151.379 236.815 125.015C243.306 113.44 248.988 101.527 252.024 88.5262C253.531 82.0741 252.551 81.2155 246.069 82.474C236.127 84.4045 227.208 88.7717 218.551 93.7778C216.517 94.954 214.717 96.0515 212.602 93.8529C204.356 85.2801 194.949 78.0327 185.755 70.5432C184.974 69.9068 184.108 69.2626 184.026 67.9588C184.364 66.1363 186.082 65.4618 187.437 64.49C208.883 49.1165 232.443 38.6835 258.721 35.2933C268.558 34.0241 278.555 33.8842 288.429 36.4555C293.777 37.8483 296.62 40.9714 297.994 46.0395C300.773 56.2955 301.182 66.7206 300.172 77.2096C295.868 121.91 275.421 159.155 246.785 192.666C237.729 203.263 228.19 213.36 218.171 223.043C214.685 226.411 211.758 227.157 207.515 224.108C196.931 216.504 185.529 209.989 176.522 199.873Z" fill="url(#paint3_radial_61_627)"/>
<defs>
<radialGradient id="paint0_radial_61_627" cx="0" cy="0" r="1" gradientUnits="userSpaceOnUse" gradientTransform="translate(133.183 96.9685) rotate(90) scale(63.2419 95.3344)">
<stop stop-color="#A68AD2"/>
<stop offset="0.927885" stop-color="#8631C9"/>
</radialGradient>
<radialGradient id="paint1_radial_61_627" cx="0" cy="0" r="1" gradientUnits="userSpaceOnUse" gradientTransform="translate(205.43 235.667) rotate(90) scale(63.076 95.2123)">
<stop stop-color="#A68AD2"/>
<stop offset="0.927885" stop-color="#8631C9"/>
</radialGradient>
<radialGradient id="paint2_radial_61_627" cx="0" cy="0" r="1" gradientUnits="userSpaceOnUse" gradientTransform="translate(99.8964 202.553) rotate(90) scale(95.7791 62.0859)">
<stop stop-color="#2FABDA"/>
<stop offset="1" stop-color="#41578D"/>
</radialGradient>
<radialGradient id="paint3_radial_61_627" cx="0" cy="0" r="1" gradientUnits="userSpaceOnUse" gradientTransform="translate(238.599 130.219) rotate(90) scale(95.8106 62.0761)">
<stop stop-color="#2FABDA"/>
<stop offset="1" stop-color="#41578D"/>
</radialGradient>
</defs>
</svg>
